<svg width="68" height="68" viewBox="0 0 68 68" fill="none" xmlns="http://www.w3.org/2000/svg">
<path d="M15.6741 68.001C23.8383 68.001 30.4566 61.3827 30.4566 53.2185C30.4566 45.0544 23.8383 38.436 15.6741 38.436C7.50995 38.436 0.891602 45.0544 0.891602 53.2185C0.891602 61.3827 7.50995 68.001 15.6741 68.001Z" fill="#1E252B"/>
<path d="M52.3733 68.001C60.5375 68.001 67.1558 61.3827 67.1558 53.2185C67.1558 45.0544 60.5375 38.436 52.3733 38.436C44.2092 38.436 37.5908 45.0544 37.5908 53.2185C37.5908 61.3827 44.2092 68.001 52.3733 68.001Z" fill="#1E252B"/>
<path d="M15.6263 29.565C23.7904 29.565 30.4088 22.9467 30.4088 14.7825C30.4088 6.61835 23.7904 0 15.6263 0C7.4621 0 0.84375 6.61835 0.84375 14.7825C0.84375 22.9467 7.4621 29.565 15.6263 29.565Z" fill="#0099FF"/>
<path d="M52.3235 29.565C60.4877 29.565 67.106 22.9467 67.106 14.7825C67.106 6.61835 60.4877 0 52.3235 0C44.1594 0 37.541 6.61835 37.541 14.7825C37.541 22.9467 44.1594 29.565 52.3235 29.565Z" fill="#1E252B"/>
</svg>
