<svg width="142" height="56" viewBox="0 0 142 56" fill="none" xmlns="http://www.w3.org/2000/svg">
<path fill-rule="evenodd" clip-rule="evenodd" d="M0 25.9101V4.67105e-05H3.60101V15.7562L11.8868 7.52798H16.7465L8.14598 15.6161L16.9912 25.9101H12.3763L5.59381 17.9971L3.60101 19.8878V25.9101H0ZM38.3665 7.52798V25.9101H34.7305V23.074C34.1711 23.8443 33.3437 24.568 32.2482 25.2449C31.1528 25.9218 29.8825 26.2603 28.4375 26.2603C26.8992 26.2603 25.4891 25.8518 24.2071 25.0348C22.9485 24.2178 21.9463 23.0857 21.2005 21.6385C20.4546 20.1913 20.0817 18.5339 20.0817 16.6665C20.0817 14.7991 20.4663 13.1535 21.2354 11.7296C22.0046 10.2824 23.0651 9.16195 24.4169 8.36831C25.7687 7.55132 27.307 7.14283 29.0318 7.14283C30.3137 7.14283 31.4325 7.42294 32.3881 7.98316C33.367 8.54338 34.1478 9.19697 34.7305 9.94392V7.52798H38.3665ZM29.2765 22.934C30.3953 22.934 31.3742 22.6656 32.2133 22.1287C33.0523 21.5685 33.705 20.8215 34.1711 19.8878C34.6373 18.9308 34.8703 17.857 34.8703 16.6665C34.8703 15.4994 34.6373 14.449 34.1711 13.5153C33.705 12.5816 33.0523 11.8463 32.2133 11.3095C31.3742 10.7492 30.3953 10.4691 29.2765 10.4691C28.2044 10.4691 27.2488 10.7376 26.4097 11.2744C25.5706 11.8113 24.918 12.5466 24.4519 13.4803C23.9857 14.414 23.7526 15.4761 23.7526 16.6665C23.7526 17.857 23.9857 18.9308 24.4519 19.8878C24.918 20.8215 25.5706 21.5685 26.4097 22.1287C27.2488 22.6656 28.2044 22.934 29.2765 22.934ZM45.5794 4.67105e-05V25.9101H49.1804V4.67105e-05H45.5794ZM76.9422 7.14283C78.597 7.14283 79.8789 7.4813 80.7879 8.15823C81.6969 8.83516 82.3262 9.74551 82.6758 10.8893C83.0487 12.0331 83.2352 13.3052 83.2352 14.7058V25.9101H79.6342V14.9509C79.6342 14.0639 79.5176 13.2702 79.2846 12.5699C79.0515 11.8697 78.6553 11.3211 78.0959 10.9243C77.5365 10.5275 76.7557 10.3641 75.7535 10.4341C74.8212 10.4341 73.9938 10.6325 73.2712 11.0293C72.5487 11.4262 71.9777 11.9514 71.5581 12.605C71.1386 13.2585 70.9288 13.9822 70.9288 14.7758V25.9101H67.3278V7.52798H70.9288V10.4341C71.4882 9.57044 72.304 8.81181 73.3761 8.15823C74.4482 7.4813 75.6369 7.14283 76.9422 7.14283ZM61.1736 55.9998H57.5726V40.1343H53.2949V36.5235H57.5726V7.52785H61.1736V36.5235H67.3279L70.9289 36.5231V47.4824C70.9289 48.3694 71.0454 49.163 71.2785 49.8633C71.5116 50.5636 71.9078 51.1121 72.4672 51.5089C73.0266 51.9058 73.8074 52.0692 74.8096 51.9991C75.7419 51.9991 76.5693 51.8007 77.2918 51.4039C78.0144 51.0071 78.5854 50.4819 79.0049 49.8283C79.4245 49.1747 79.6342 48.4511 79.6342 47.6575V36.5231H83.2353V54.9053H79.6342V51.9991C79.0749 52.8628 78.2591 53.6214 77.187 54.275C76.1148 54.952 74.9261 55.2904 73.6209 55.2904C71.9661 55.2904 70.6842 54.952 69.7752 54.275C68.8662 53.5981 68.2368 52.6877 67.8872 51.544C67.5143 50.4002 67.3279 49.128 67.3279 47.7275V40.1343H61.1736V55.9998ZM91.4413 25.9103H95.0423V7.52812H91.4413V25.9103ZM115.681 8.15831C114.772 7.48138 113.49 7.14292 111.835 7.14292C110.53 7.14292 109.341 7.48138 108.269 8.15831C107.197 8.8119 106.381 9.57053 105.822 10.4342V7.52806H102.221V25.9102L102.336 39.0314C101.73 38.3078 100.891 37.6776 99.8189 37.1407C98.7701 36.6038 97.593 36.3354 96.2878 36.3354C94.6563 36.3354 93.1879 36.7439 91.8827 37.5609C90.5775 38.3779 89.5403 39.51 88.7711 40.9572C88.002 42.3811 87.6174 44.0267 87.6174 45.8941C87.6174 47.7382 88.002 49.3838 88.7711 50.831C89.5403 52.2783 90.5891 53.4104 91.9177 54.2274C93.2462 55.0444 94.7379 55.4528 96.3927 55.4528C97.7212 55.4528 98.9099 55.1494 99.9588 54.5425C101.008 53.9122 101.685 53.2353 102.221 52.5117V55.4528H105.822V22.6275V14.7759C105.822 13.9822 106.032 13.2586 106.451 12.605C106.871 11.9515 107.442 11.4263 108.164 11.0294C108.887 10.6326 109.714 10.4342 110.646 10.4342C111.649 10.3642 112.43 10.5276 112.989 10.9244C113.548 11.3212 113.944 11.8698 114.178 12.57C114.411 13.2703 114.527 14.0639 114.527 14.951V25.9102H118.128V14.7059C118.128 13.3053 117.942 12.0332 117.569 10.8894C117.219 9.7456 116.59 8.83524 115.681 8.15831ZM99.8189 51.4963C98.9798 52.0565 98.0009 52.3366 96.8822 52.3366C95.7867 52.3366 94.8194 52.0565 93.9804 51.4963C93.1413 50.9361 92.477 50.1658 91.9876 49.1854C91.5214 48.205 91.2884 47.1079 91.2884 45.8941C91.2884 44.657 91.5214 43.5599 91.9876 42.6028C92.477 41.6225 93.1413 40.8521 93.9804 40.2919C94.8194 39.7317 95.7867 39.4516 96.8822 39.4516C98.0009 39.4516 98.9798 39.7317 99.8189 40.2919C100.658 40.8521 101.311 41.6225 101.777 42.6028C102.243 43.5599 102.476 44.657 102.476 45.8941C102.476 47.1079 102.243 48.205 101.777 49.1854C101.311 50.1658 100.658 50.9361 99.8189 51.4963ZM46.2888 40.4582C47.1279 40.8784 47.8737 41.4153 48.5263 42.0689L50.589 39.793C49.75 38.7659 48.6895 38.019 47.4076 37.5521C46.1256 37.0853 44.937 36.8518 43.8415 36.8518C42.6994 36.8518 41.6273 37.0736 40.6251 37.5171C39.6228 37.9373 38.8071 38.5442 38.1778 39.3378C37.5718 40.1081 37.2688 41.0418 37.2688 42.1389C37.2688 43.4461 37.5834 44.4848 38.2127 45.2551C38.8654 46.0021 39.6695 46.5856 40.6251 47.0058C41.604 47.4026 42.5946 47.7411 43.5968 48.0212C44.2727 48.1846 44.8903 48.3713 45.4497 48.5814C46.0091 48.7682 46.452 49.0249 46.7783 49.3517C47.1279 49.6552 47.3027 50.087 47.3027 50.6472C47.3027 51.2308 47.1395 51.6976 46.8132 52.0478C46.5102 52.3746 46.1373 52.6197 45.6945 52.7831C45.2516 52.9231 44.8088 52.9931 44.3659 52.9931C43.2006 52.9931 42.21 52.7947 41.3942 52.3979C40.6018 51.9777 39.8909 51.4058 39.2616 50.6822L36.8143 52.7831C37.7233 53.9502 38.8187 54.7788 40.1007 55.269C41.4059 55.7359 42.7227 55.9693 44.0513 55.9693C45.17 55.9693 46.2305 55.7592 47.2328 55.3391C48.2583 54.8955 49.0857 54.2653 49.715 53.4483C50.3676 52.6313 50.6939 51.6509 50.6939 50.5072C50.6939 49.1766 50.3909 48.1496 49.7849 47.426C49.2022 46.679 48.4564 46.1188 47.5474 45.7453C46.6384 45.3485 45.7061 45.0217 44.7505 44.7649C43.655 44.4848 42.7344 44.1697 41.9886 43.8196C41.266 43.4694 40.8931 42.8742 40.8698 42.0339C40.8698 41.427 41.033 40.9718 41.3593 40.6683C41.6856 40.3415 42.0818 40.1198 42.5479 40.0031C43.0374 39.8864 43.5269 39.828 44.0163 39.828C44.7155 39.828 45.473 40.0381 46.2888 40.4582ZM142 46.4106C142 48.278 141.58 49.9353 140.741 51.3825C139.926 52.8064 138.807 53.9268 137.385 54.7438C135.987 55.5608 134.413 55.9693 132.665 55.9693C130.917 55.9693 129.332 55.5608 127.911 54.7438C126.489 53.9268 125.358 52.8064 124.519 51.3825C123.704 49.9353 123.296 48.278 123.296 46.4106C123.296 44.5432 123.704 42.8975 124.519 41.4736C125.358 40.0264 126.489 38.8943 127.911 38.0773C129.332 37.2603 130.917 36.8518 132.665 36.8518C134.413 36.8518 135.987 37.2603 137.385 38.0773C138.807 38.8943 139.926 40.0264 140.741 41.4736C141.58 42.8975 142 44.5432 142 46.4106ZM138.329 46.4106C138.352 45.1734 138.108 44.088 137.595 43.1543C137.105 42.1973 136.429 41.462 135.567 40.9484C134.705 40.4116 133.737 40.1431 132.665 40.1431C131.593 40.1431 130.614 40.4116 129.729 40.9484C128.866 41.462 128.179 42.1973 127.666 43.1543C127.176 44.088 126.943 45.1734 126.967 46.4106C126.943 47.6244 127.176 48.7098 127.666 49.6668C128.179 50.6005 128.866 51.3358 129.729 51.8727C130.614 52.4096 131.593 52.678 132.665 52.678C133.737 52.678 134.705 52.4096 135.567 51.8727C136.429 51.3358 137.105 50.6005 137.595 49.6668C138.108 48.7098 138.352 47.6244 138.329 46.4106ZM117.803 31.5501C117.803 32.5472 116.996 33.3555 116 33.3555C115.004 33.3555 114.197 32.5472 114.197 31.5501C114.197 30.5531 115.004 29.7448 116 29.7448C116.996 29.7448 117.803 30.5531 117.803 31.5501ZM117.986 56H114.385V36.6419H117.986V56ZM95.0467 2.5494C95.0467 3.54649 94.2396 4.35479 93.244 4.35479C92.2484 4.35479 91.4413 3.54649 91.4413 2.5494C91.4413 1.55231 92.2484 0.744012 93.244 0.744012C94.2396 0.744012 95.0467 1.55231 95.0467 2.5494ZM59.3753 4.35479C60.3708 4.35479 61.1779 3.54649 61.1779 2.5494C61.1779 1.55231 60.3708 0.744012 59.3753 0.744012C58.3797 0.744012 57.5726 1.55231 57.5726 2.5494C57.5726 3.54649 58.3797 4.35479 59.3753 4.35479Z" fill="#1E252B"/>
</svg>
